Coordinates
version=1
nRows=10
nColumns=40
inDegrees=yes

Units are S.I. units (second, meters, Newtons, ...)
Angles are in degrees.

endheader
time	pelvis_tilt	pelvis_list	pelvis_rotation	pelvis_tx	pelvis_ty	pelvis_tz	hip_flexion_r	hip_adduction_r	hip_rotation_r	knee_angle_r	knee_angle_r_beta	ankle_angle_r	subtalar_angle_r	mtp_angle_r	hip_flexion_l	hip_adduction_l	hip_rotation_l	knee_angle_l	knee_angle_l_beta	ankle_angle_l	subtalar_angle_l	mtp_angle_l	lumbar_extension	lumbar_bending	lumbar_rotation	arm_flex_r	arm_add_r	arm_rot_r	elbow_flex_r	pro_sup_r	wrist_flex_r	wrist_dev_r	arm_flex_l	arm_add_l	arm_rot_l	elbow_flex_l	pro_sup_l	wrist_flex_l	wrist_dev_l
     21.55000000	     -4.49791222	     -6.62088157	     -2.68398977	      1.05745916	      0.93429579	      0.42263451	     31.74142720	     -3.71895606	     -4.87389973	     57.59004259	     57.59004259	     -1.35995110	    -11.32068530	     -1.23158307	     14.95410328	     -8.70377055	     -8.50920701	     22.95015100	     22.95015100	     13.73568632	    -12.45295594	      1.88209231	    -11.94371344	      5.35044083	      1.34955796	      2.61664360	    -14.50571187	     -9.13647859	     26.31439615	     47.04021973	      0.00000000	      0.00000000	     10.40540772	    -19.21159199	     -2.92936366	     54.41281816	     46.02424170	      0.00000000	      0.00000000
     21.56371429	     -4.61797561	     -6.70708582	     -3.20505270	      1.05628476	      0.93486078	      0.42320589	     31.98740233	     -3.36093668	     -5.07426420	     54.43828754	     54.43828754	     -1.06270743	    -10.44192246	     -1.42435551	     14.35100093	     -8.83873219	     -8.95211005	     22.38795646	     22.38795646	     13.81327012	    -12.45597285	      1.87622682	    -12.04190233	      5.41574071	      1.41512089	      2.29069002	    -14.32284916	     -9.41189054	     26.27085380	     47.05443399	      0.00000000	      0.00000000	     10.83869872	    -19.44057742	     -2.89573339	     55.44917981	     46.04791098	      0.00000000	      0.00000000
     21.57742857	     -4.80726715	     -6.74061104	     -3.73314344	      1.05508049	      0.93509552	      0.42391158	     32.06289167	     -3.00713165	     -5.31780364	     50.66011766	     50.66011766	     -1.46586822	     -9.75941593	     -3.96668679	     13.83251689	     -8.93660191	     -9.45214125	     21.83079097	     21.83079097	     13.68914742	    -12.49138909	      1.23436602	    -12.07401578	      5.42240078	      1.30406085	      2.17458194	    -13.84770894	    -11.21713891	     26.49339084	     47.14360064	      0.00000000	      0.00000000	     10.52509037	    -20.07365761	     -2.60988014	     58.22288999	     46.12650357	      0.00000000	      0.00000000
     21.59114286	     -5.04774370	     -6.77073607	     -4.24305908	      1.05381571	      0.93521299	      0.42464070	     32.07154109	     -2.64899611	     -5.67991522	     46.59892536	     46.59892536	     -1.04203712	     -8.32531995	     -3.99701466	     13.42256359	     -9.01924922	     -9.86949504	     21.37067220	     21.37067220	     13.79603907	    -12.52282206	      1.23372075	    -12.00844010	      5.48689622	      1.38458040	      2.10598373	    -13.65403701	    -11.33338336	     26.36463847	     47.15133039	      0.00000000	      0.00000000	     11.15687991	    -20.14047983	     -2.72698799	     58.67019204	     46.15642417	      0.00000000	      0.00000000
     21.60485714	     -5.25241731	     -6.67805286	     -4.75234043	      1.05266443	      0.93518826	      0.42540515	     31.82295534	     -2.44531695	     -6.20875083	     42.10129819	     42.10129819	     -0.79163383	     -6.34270959	     -4.95741637	     12.93270215	     -8.97725567	    -10.41291135	     20.83782746	     20.83782746	     13.85593448	    -12.40302064	      0.98847454	    -11.99749033	      5.39330303	      1.59658684	      2.07750593	    -13.40462356	    -11.75594083	     26.18169636	     47.17517516	      0.00000000	      0.00000000	     11.76866927	    -20.12658368	     -2.93328992	     59.62195931	     46.21659426	      0.00000000	      0.00000000
     21.61857143	     -5.64990583	     -6.68363912	     -5.25057081	      1.05144656	      0.93478436	      0.42641507	     31.58035257	     -1.92422887	     -6.58507533	     37.25129099	     37.25129099	     -0.42328938	     -4.64670740	     -4.71932579	     12.77553219	     -9.06866935	    -10.79737989	     20.51900220	     20.51900220	     13.97349424	    -12.50304441	      0.90576837	    -11.72490139	      5.46222876	      1.61142569	      2.21330468	    -13.09979268	    -11.81047664	     26.22328297	     47.17401450	      0.00000000	      0.00000000	     12.33886896	    -20.24004471	     -3.00496416	     60.10167528	     46.23934259	      0.00000000	      0.00000000
     21.63228571	     -5.66416000	     -6.60156729	     -5.61343244	      1.05061699	      0.93473882	      0.42708892	     30.63651304	     -1.67726236	     -7.43832511	     32.05796389	     32.05796389	     -0.05294133	     -1.82755970	     -4.84717741	     12.17592842	     -9.01105664	    -11.21350977	     20.16556744	     20.16556744	     14.09985004	    -12.35944528	      0.60458090	    -11.92097604	      5.49966715	      1.71178266	      2.36022793	    -13.02901537	    -12.00454187	     26.21426949	     47.18204599	      0.00000000	      0.00000000	     12.97676332	    -20.14374693	     -3.11078904	     60.94468311	     46.27749032	      0.00000000	      0.00000000
     21.64600000	     -5.92249780	     -6.44555218	     -6.00227412	      1.04989923	      0.93412571	      0.42814024	     29.83178371	     -1.36976687	     -8.38389820	     26.82795410	     26.82795410	      0.11399233	      1.02002706	     -4.66448164	     11.82376071	     -8.92008807	    -11.69553015	     19.77255457	     19.77255457	     14.14346159	    -12.26066239	      0.04585022	    -11.72008245	      5.34288299	      1.75042941	      2.55985498	    -12.72532381	    -12.32787131	     26.27795826	     47.18772426	      0.00000000	      0.00000000	     13.48894041	    -20.10543352	     -3.26607213	     61.82133878	     46.33162279	      0.00000000	      0.00000000
     21.65971429	     -6.02751113	     -6.32618327	     -6.30537666	      1.04944383	      0.93353468	      0.42922672	     28.74852502	     -0.91878249	     -9.18782344	     21.74561924	     21.74561924	      0.34376451	      3.56798722	     -3.43800639	     11.37792414	     -8.84500219	    -12.02668672	     19.53244534	     19.53244534	     14.31027526	    -12.26250432	     -0.34831526	    -11.66501668	      5.29097651	      1.74127294	      2.82402711	    -12.50650461	    -12.44183057	     26.39284175	     47.18280810	      0.00000000	      0.00000000	     14.13454629	    -20.03702890	     -3.29805755	     62.40197931	     46.36212241	      0.00000000	      0.00000000
     21.67342857	     -6.13701666	     -6.06219525	     -6.51801226	      1.04931942	      0.93272439	      0.43026348	     27.83937931	     -0.74452907	    -10.51569001	     17.51589719	     17.51589719	      1.21809019	      6.79049060	     -0.28975006	     10.89465549	     -8.60504349	    -12.41580337	     19.17799691	     19.17799691	     14.30998261	    -12.10007465	     -1.17552411	    -11.53010988	      5.12453011	      1.79697376	      3.03388012	    -12.30157996	    -12.67184771	     26.62400496	     47.16440047	      0.00000000	      0.00000000	     14.71474113	    -19.89427378	     -3.28087676	     63.02210143	     46.41141295	      0.00000000	      0.00000000
